<svg width="34" height="34" viewBox="0 0 34 34" fill="none" xmlns="http://www.w3.org/2000/svg">
<path fill-rule="evenodd" clip-rule="evenodd" d="M10.4517 6.67727V6.21951C10.4517 4.56999 11.1416 2.98804 12.3695 1.82165C13.5975 0.655268 15.2629 0 16.9995 0C18.7361 0 20.4016 0.655268 21.6296 1.82165C22.8575 2.98804 23.5474 4.56999 23.5474 6.21951V6.67727C24.6963 6.71044 25.7213 6.7718 26.6292 6.87961C28.7263 7.13171 30.4252 7.65912 31.7365 8.87649C32.1731 9.28283 32.5624 9.73229 32.8959 10.2199C33.8947 11.6794 34.1077 13.3645 33.9558 15.368C33.8057 17.3284 33.2888 19.7897 32.6305 22.9127L32.5956 23.0702C32.1416 25.238 31.7784 26.9628 31.3279 28.3212C30.8652 29.7177 30.2733 30.8488 29.285 31.7643C28.9445 32.0794 28.5779 32.3647 28.185 32.6201C27.0465 33.3615 25.7632 33.6899 24.2301 33.8474C22.7407 34 20.8898 34 18.5623 34H15.4368C13.1092 34 11.2584 34 9.76898 33.8474C8.23591 33.6899 6.95253 33.3615 5.81408 32.6201C5.42227 32.3653 5.05424 32.079 4.71404 31.7643C3.72576 30.8488 3.13383 29.7177 2.67112 28.3212C2.22237 26.9628 1.85919 25.238 1.40171 23.0702L1.36854 22.9127C0.712006 19.7897 0.193417 17.3284 0.0449993 15.368C-0.108657 13.3645 0.104366 11.6794 1.10313 10.2199C1.43628 9.73287 1.82511 9.28233 2.26253 8.87649C3.57559 7.65912 5.27279 7.13171 7.36985 6.87961C8.27781 6.7718 9.30277 6.71044 10.4517 6.67727ZM13.0708 6.21951C13.0708 5.2298 13.4847 4.28063 14.2215 3.5808C14.9583 2.88097 15.9576 2.4878 16.9995 2.4878C18.0415 2.4878 19.0408 2.88097 19.7775 3.5808C20.5143 4.28063 20.9282 5.2298 20.9282 6.21951V6.63746C20.1879 6.63415 19.4056 6.63415 18.5815 6.63415H15.4193C14.5934 6.63415 13.8129 6.63415 13.0708 6.63746V6.21951ZM4.09244 10.6561C4.81706 9.98439 5.85249 9.56976 7.69811 9.34751C9.56643 9.12361 12.0459 9.12195 15.5136 9.12195H18.4872C21.9549 9.12195 24.4309 9.12361 26.301 9.34751C28.1466 9.56976 29.182 9.98439 29.9066 10.6561C30.2052 10.9331 30.4706 11.2416 30.6994 11.5749C31.2511 12.381 31.4764 13.4275 31.3437 15.1905C31.2075 16.9751 30.7238 19.2821 30.0446 22.513C29.5696 24.7669 29.2326 26.3608 28.8293 27.5732C28.4364 28.7623 28.0174 29.4639 27.4569 29.983C27.2246 30.1981 26.9734 30.394 26.706 30.5685C26.06 30.9881 25.2533 31.2402 23.949 31.3745C22.6167 31.5105 20.9055 31.5122 18.4855 31.5122H15.5154C13.0953 31.5122 11.3841 31.5105 10.0501 31.3745C8.74751 31.2419 7.94256 30.9881 7.29651 30.5685C7.02848 30.3935 6.77671 30.1971 6.54395 29.9814C5.98345 29.4639 5.56614 28.7623 5.17152 27.5732C4.76992 26.3591 4.43118 24.7669 3.95799 22.513C3.27701 19.2821 2.79334 16.9735 2.6589 15.1889C2.52445 13.4275 2.74969 12.381 3.30146 11.5749C3.52925 11.2418 3.79511 10.9337 4.09418 10.6561" fill="black"/>
</svg>
