<svg width="256" height="100" viewBox="0 0 256 100" fill="none" xmlns="http://www.w3.org/2000/svg">
<path fill-rule="evenodd" clip-rule="evenodd" d="M119.591 1.59285C119.301 2.46888 119.299 3.54891 119.584 3.99293C120.312 5.12176 122.295 5.00096 122.743 3.80012C122.947 3.2505 123.418 3.0713 123.789 3.40331C124.159 3.73532 123.647 4.83855 122.652 5.85459C121.656 6.87142 120.84 8.51627 120.84 9.5091C120.84 11.1508 120.721 11.2004 119.53 10.0571C117.992 8.58347 117.138 8.50347 114.945 9.62831C113.054 10.5987 112.782 12.8004 114.554 12.8004C116.109 12.8004 117.649 15.5053 117.007 17.1093C116.106 19.3622 118.269 23.552 121.384 25.5848C124.35 27.5209 126.686 31.313 126.675 34.1755C126.671 35.2315 126.254 34.9971 125.067 33.2699C123.157 30.4922 117.147 26.4592 114.016 25.8544C110.906 25.2544 107.684 21.8959 109.004 20.6303C109.768 19.8974 109.994 19.8998 109.994 20.6407C109.994 21.1687 110.745 21.6007 111.663 21.6007C113.647 21.6007 113.941 19.0814 112.126 17.6374C109.96 15.9133 107.179 16.9941 105.549 20.1934C104.164 22.9103 104.139 23.4071 105.273 25.5864C105.981 26.9473 106.19 28.1833 105.755 28.4409C105.334 28.6905 104.988 29.9538 104.988 31.2482C104.988 33.7315 106.393 34.3339 108.183 32.6178C108.995 31.8394 109.608 32.1138 111.119 33.9299C112.881 36.0499 113.322 36.1844 116.844 35.6779C120.321 35.1779 120.816 35.3195 122.419 37.2732C123.576 38.6844 124.169 40.5421 124.151 42.7094L124.125 46.0015L122.413 43.8014C120.61 41.4845 117.71 40.9229 116.001 42.5614C114.628 43.8782 114.742 45.6015 116.202 45.6015C119.485 45.6015 118.62 50.6064 115.029 52.3873C112.103 53.8377 108.411 53.9209 106.584 52.5761C103.116 50.0232 102.334 45.1046 105.024 42.7702C106.533 41.4613 106.666 41.4477 106.182 42.6566C104.929 45.7895 110.151 47.7367 112.855 45.1446C114.625 43.447 114.512 39.7493 112.64 38.1252C110.93 36.642 105.731 36.3636 103.274 37.6252C98.6058 40.0205 97.9108 48.6408 102.051 52.7841C106.753 57.4898 117.583 57.4018 122.572 52.6177L125.012 50.2784V52.7121C125.012 54.3945 125.574 55.4338 126.833 56.0802C128.386 56.877 128.881 56.7466 130.19 55.197C131.131 54.0825 131.536 52.7249 131.236 51.6904L130.748 50.0016L132.26 51.7081C137.263 57.353 148.738 57.8642 153.924 52.6737C155.997 50.5984 156.299 49.684 156.299 45.4799C156.299 41.1941 156.041 40.4501 153.958 38.7316C151.004 36.2956 145.174 36.0443 143.079 38.2644C140.232 41.2813 141.942 46.4015 145.797 46.4015C148.584 46.4015 150.44 44.6062 149.716 42.6118C149.359 41.6293 149.71 41.7741 150.874 43.0902C154.697 47.4127 151.24 53.5233 144.941 53.5761C139.743 53.6201 134.785 46.9391 139.195 45.8335C141.076 45.3614 141.355 43.9926 139.863 42.5614C138.154 40.9229 135.254 41.4845 133.451 43.8014L131.739 46.0015L131.713 42.7094C131.696 40.5421 132.288 38.6844 133.445 37.2732C135.048 35.3195 135.543 35.1779 139.02 35.6779C142.542 36.1844 142.983 36.0499 144.745 33.9299C146.256 32.1138 146.869 31.8394 147.681 32.6178C149.471 34.3339 150.876 33.7315 150.876 31.2482C150.876 29.9538 150.526 28.6881 150.098 28.4345C149.646 28.1665 149.808 27.0729 150.487 25.8184C153.234 20.7415 147.434 14.0204 143.534 17.7606C141.921 19.307 142.32 21.6007 144.201 21.6007C145.119 21.6007 145.87 21.1687 145.87 20.6407C145.87 19.8998 146.096 19.8974 146.86 20.6303C147.624 21.3623 147.4 22.0391 145.88 23.5904C144.797 24.696 143.37 25.6008 142.709 25.6008C140.258 25.6008 133.1 30.0458 131.174 32.7634C129.931 34.5171 129.184 35.0715 129.184 34.2387C129.184 31.4082 131.113 28.2753 134.75 25.2008C138.236 22.2543 138.545 21.6839 138.657 18.0006C138.757 14.6797 139.097 13.866 140.655 13.2108C142.96 12.2412 143.071 10.7323 140.919 9.62831C138.727 8.50347 137.872 8.58347 136.335 10.0571C135.143 11.2004 135.024 11.1508 135.024 9.5091C135.024 8.51627 134.209 6.87142 133.213 5.85459C132.217 4.83855 131.705 3.73532 132.075 3.40331C132.446 3.0713 132.917 3.2505 133.122 3.80012C133.569 5.00096 135.552 5.12176 136.28 3.99293C137.394 2.26407 135.777 0 133.429 0C129.76 0 128.026 2.46328 128.655 6.78022C128.946 8.77148 129.42 12.0148 129.708 13.9876C130.005 16.0245 129.752 19.6518 129.121 22.3775L128.01 27.1793L126.867 22.9903C125.779 19.0054 125.836 15.9533 127.17 6.98022C127.625 3.91293 127.443 2.84969 126.245 1.58005C124.256 -0.527217 120.291 -0.520017 119.591 1.59285ZM128.811 40.3917C128.786 42.8062 128.384 44.923 127.918 45.095C127.402 45.2854 127.07 43.5638 127.07 40.7045C127.07 37.898 127.43 36.0011 127.962 36.0011C128.493 36.0011 128.837 37.7812 128.811 40.3917ZM146.704 65.6917C146.704 66.1829 145.312 66.3165 143.158 66.0325C140.432 65.6725 139.155 65.9109 137.63 67.0629L135.647 68.5614L138.364 69.083C140.989 69.5862 141.063 69.7062 140.512 72.6031C140.198 74.2528 139.868 77.9785 139.778 80.8826C139.631 85.5875 139.826 86.318 141.573 87.5804C143.459 88.9444 143.596 88.9388 145.155 87.4436C146.497 86.158 146.626 85.5099 145.906 83.6939C144.442 80.0018 144.78 78.2601 146.913 78.4945C149.163 78.7417 152.545 77.7529 152.545 76.8465C152.545 75.4784 149.769 74.0816 147.395 74.2552C145.253 74.412 144.951 74.1896 145.184 72.6263C145.404 71.1415 146.14 70.7231 149.286 70.2934C151.396 70.0054 153.913 69.2958 154.881 68.7166C157.938 66.8853 158.258 68.3182 157.094 78.6409C156.503 83.8883 156.564 84.1635 158.845 86.446C160.511 88.1132 161.693 88.666 162.844 88.3148C164.899 87.69 170.396 87.742 172.581 88.4068C173.859 88.7956 174.237 88.542 174.237 87.2964C174.237 86.4084 173.62 85.3515 172.867 84.9475C171.832 84.3923 171.65 83.6483 172.121 81.9074C172.464 80.6394 172.693 77.9033 172.632 75.8256C172.547 72.9991 172.944 71.6415 174.213 70.4254C176.736 68.0062 176.326 67.5142 171.734 67.4478L167.562 67.387V75.3208C167.562 82.8074 167.456 83.2939 165.685 83.9547C162.641 85.0915 161.861 83.2163 162.281 75.7728C162.747 67.5294 162.248 66.7501 156.651 66.9749C154.288 67.0701 151.084 66.6381 149.529 66.0157C147.85 65.3429 146.704 65.2117 146.704 65.6917ZM92.1065 66.7445C90.1358 67.3293 89.2106 67.9518 89.7963 68.299C90.4003 68.6566 90.7874 71.2303 90.81 75.04C90.8809 86.7724 90.7574 86.3148 94.0797 87.1996C97.885 88.2132 98.9579 88.2012 103.969 87.0924C108.075 86.1835 108.08 86.1771 106.967 84.0379C106.146 82.4602 106.068 81.1706 106.67 79.1569C107.228 77.2945 107.198 75.5728 106.577 73.7688C106.075 72.3103 105.89 70.2542 106.166 69.199C106.607 67.5166 106.283 67.1773 103.534 66.4453C99.6245 65.4045 96.3348 65.4909 92.1065 66.7445ZM109.892 67.4982C110.915 68.5414 111.725 70.071 111.693 70.8983C111.662 71.7255 111.635 74.904 111.634 77.9625C111.632 82.1018 111.2 84.2227 109.944 86.2635C107.821 89.7149 108.46 90.3997 111.676 88.1196C113.711 86.6772 114.494 86.5148 115.91 87.2412C117.935 88.2812 118.965 87.694 117.697 86.222C117.214 85.6611 116.56 83.7627 116.246 82.0026L115.674 78.8025L118.661 82.9522C124.375 90.8901 130.547 93.6414 138.905 91.9773C144.267 90.9101 144.677 90.0133 139.819 89.9757C137.87 89.9613 135.074 89.3677 133.605 88.6572C131.722 87.746 130.84 87.6364 130.612 88.2836C130.38 88.9444 129.909 88.902 128.941 88.1356C127.833 87.2588 127.614 85.4955 127.715 78.2457C127.82 70.7359 128.087 69.1206 129.513 67.3821L131.188 65.3405L127.15 65.8709C124.928 66.1629 122.554 66.4021 121.873 66.4021C120.999 66.4021 120.879 66.6957 121.462 67.4022C122.372 68.5038 123.71 80.8026 122.92 80.8026C122.648 80.8026 121.088 78.0993 119.452 74.7952C117.175 70.1982 116.696 68.5342 117.414 67.7046C118.172 66.8285 117.611 66.5237 114.474 66.1117C108.085 65.2717 107.797 65.3589 109.892 67.4982ZM78.291 67.7454C78.2902 68.2638 78.83 69.2062 79.4908 69.839C80.2283 70.5462 80.6671 72.4951 80.6296 74.896C80.5954 77.0449 80.693 80.1362 80.8448 81.7658C81.0392 83.8451 80.6371 85.2539 79.4974 86.4916L77.873 88.254L79.9588 87.7396C81.106 87.4564 83.4621 87.2196 85.195 87.214L88.3445 87.2028L87.0964 84.8875C86.4098 83.6139 85.8216 80.6442 85.7899 78.2873C85.7581 75.9304 85.6722 73.1023 85.598 72.0023C85.5245 70.9023 85.7315 69.2558 86.0577 68.3438C86.6092 66.8061 86.3472 66.6893 82.4718 66.7437C79.8537 66.7805 78.291 67.1541 78.291 67.7454ZM182.236 67.6078C181.329 68.2678 179.816 68.5694 178.725 68.307C176.918 67.8718 176.853 67.9918 177.579 70.4198C178.003 71.8351 178.13 74.5312 177.861 76.4104L177.372 79.8281L181.228 79.4113L185.083 78.9945V82.3322V85.6699L181.464 83.6363C177.318 81.3066 177.021 81.2378 177.01 82.6026C177.006 83.1531 176.73 84.4131 176.398 85.4027C175.9 86.882 176.105 87.2028 177.545 87.2028C178.508 87.2028 180.598 87.7244 182.189 88.3612C184.384 89.2412 185.684 89.3188 187.585 88.6836C189.841 87.9292 190.089 87.5076 190.089 84.4243C190.089 82.5426 190.323 79.8777 190.61 78.5025L191.132 76.0024H186.803H182.474L182.736 73.4023C182.921 71.5583 183.361 70.8919 184.249 71.1119C188.409 72.1399 189.441 72.0887 190.952 70.7767C193.283 68.7542 193.014 68.2182 189.463 67.8158C187.743 67.6206 185.771 67.2333 185.083 66.9541C184.395 66.6749 183.114 66.9693 182.236 67.6078ZM59.7266 67.7902C55.3523 68.1206 54.8675 68.9846 57.5315 71.7031C59.0767 73.2807 59.1801 73.8328 58.3541 76.104C57.7167 77.8585 57.685 78.9649 58.2557 79.5121C59.3545 80.5658 59.3428 85.2739 58.2373 87.2556C57.4355 88.6924 57.6808 88.8028 61.6639 88.8028C65.435 88.8028 65.8772 88.6332 65.3207 87.4028C64.9719 86.6324 64.5156 84.8323 64.3053 83.4027C63.9349 80.8738 64.0083 80.8026 66.9993 80.8026C70.0721 80.8026 70.0746 80.805 69.8335 84.0083C69.6383 86.602 69.9595 87.4604 71.5197 88.5084C73.326 89.7213 73.5554 89.6989 75.174 88.146C76.6082 86.7708 76.7208 86.2812 75.8348 85.2571C75.1907 84.5139 74.9295 82.8298 75.1748 81.0138C75.3993 79.3577 75.1823 76.496 74.6917 74.6544C74.0376 72.1943 74.0602 70.7615 74.7769 69.2542C75.7413 67.2229 75.7146 67.2021 72.1271 67.2021H68.5019L68.5987 71.8023L68.6955 76.4024L65.8622 76.6616L63.0296 76.9209L63.4894 72.0615C63.7413 69.3886 63.8907 67.2669 63.8189 67.3461C63.748 67.4254 61.9058 67.6254 59.7266 67.7902ZM44.4143 69.3614C43.5984 69.9334 42.1074 70.4022 41.1021 70.4022C39.3475 70.4022 39.3183 70.5222 40.3904 73.4023C41.0045 75.0528 41.5234 77.6113 41.5434 79.0889C41.5827 81.9354 41.7662 81.9738 47.5205 80.3434C48.5008 80.0658 49.0156 80.649 49.3935 82.4642C50.1344 86.0147 49.5254 86.4388 45.7367 85.0115C42.0065 83.6059 42.014 83.6035 41.3065 86.4428C40.8268 88.3668 41.0554 88.5348 45.3121 89.3909C48.7361 90.0797 50.4623 90.0701 52.4605 89.3508C54.9927 88.4396 55.0761 88.2668 54.5947 84.8907C54.3202 82.9594 54.0949 80.2034 54.0949 78.7657C54.0949 76.7057 53.7862 76.2104 52.6349 76.4264C45.6525 77.7385 45.7517 77.7617 45.7517 74.8584C45.7517 72.1759 45.7776 72.1575 49.0156 72.5743C51.9649 72.9535 52.3996 72.7727 53.5176 70.6983L54.754 68.4022L50.3271 68.3614C47.8918 68.339 45.2311 68.7886 44.4143 69.3614ZM194.669 69.667C195.041 70.7319 195.313 73.0423 195.273 74.8024C195.232 76.5624 195.221 78.7225 195.247 79.6025C195.398 84.6547 195.201 85.7643 193.911 87.1316C192.538 88.5852 192.64 88.6588 196.765 89.2028C201.67 89.8501 202.262 89.5805 200.982 87.2868C199.77 85.1155 200.728 73.0191 202.303 70.6022C203.445 68.8494 203.39 68.8022 200.188 68.8022C198.379 68.8022 196.245 68.5614 195.446 68.267C194.215 67.8142 194.096 68.0294 194.669 69.667ZM212.198 69.1998C211.739 69.3494 209.907 69.7054 208.127 69.9926C205.72 70.3798 205.131 70.7455 205.832 71.4183C207.016 72.5535 207.031 74.46 205.874 77.3505C205.379 78.5889 204.91 81.8154 204.831 84.5203L204.689 89.438L208.861 90.6589C211.522 91.4373 214.619 91.7197 217.413 91.4397C221.934 90.9853 222.486 90.5877 220.818 88.9884C220.076 88.2764 220.098 87.2404 220.915 84.6283C221.505 82.7442 221.987 79.0705 221.988 76.4648L221.989 71.7271L218.346 70.3094C214.665 68.8774 213.716 68.7062 212.198 69.1998ZM27.8139 70.3294C25.5195 70.6047 23.1667 71.1191 22.5852 71.4719C20.9066 72.4911 15.2708 72.7975 12.4558 72.0231C10.8906 71.5927 9.87605 71.6071 9.87605 72.0583C9.87605 72.4671 8.37428 72.8023 6.53878 72.8023C4.31365 72.8023 2.64501 73.3359 1.53287 74.4024C-0.693928 76.5376 -0.589638 76.8025 2.47315 76.8025H5.08206L4.67908 80.8266C4.45715 83.0395 4.59732 85.0411 4.99028 85.2739C5.38325 85.5067 5.70446 87.418 5.70446 89.5221C5.70446 92.8886 5.97061 93.4622 7.92959 94.3182C9.84935 95.1574 10.38 95.0758 11.7883 93.7246C13.3159 92.2597 13.3343 92.0389 12.0661 90.3029C9.99369 87.466 10.2849 84.8027 12.6668 84.8027C13.7431 84.8027 15.2758 84.1115 16.0734 83.2667C17.4558 81.801 17.4433 81.689 15.8022 80.8466C14.8561 80.361 13.185 80.1794 12.0887 80.4434C10.4309 80.8426 10.0254 80.5754 9.68416 78.8633C9.32707 77.0753 9.56151 76.8025 11.4521 76.7993C12.6502 76.7977 14.9445 76.0224 16.5506 75.076C18.1567 74.1296 20.5036 73.2727 21.7651 73.1719C23.659 73.0207 24.0595 73.3095 24.0595 74.8296C24.0595 78.0545 23.1601 79.2025 20.6329 79.2025C17.7478 79.2025 17.5026 80.1218 20.0965 81.213C22.6328 82.2802 22.8414 84.7955 20.7656 89.2948C19.8128 91.3605 19.1487 93.1614 19.2905 93.2966C19.4315 93.4318 20.5453 93.0462 21.7668 92.4381C22.9874 91.8309 24.762 91.5285 25.7097 91.7661C27.2507 92.1533 27.3483 91.9853 26.6342 90.1829C25.6146 87.6132 26.4139 86.826 28.3429 88.4996C29.7428 89.7149 29.9089 89.6589 30.86 87.658L31.8779 85.5147L32.8849 87.3188C33.438 88.3108 33.7034 89.5901 33.4748 90.1629C32.995 91.3605 33.9645 91.4965 35.6573 90.4685C36.3773 90.0317 38.0593 90.1765 40.0375 90.8453C41.8038 91.4429 43.2488 91.8133 43.2488 91.6677C43.2488 91.5229 41.9422 90.0365 40.3454 88.3652C38.7493 86.6932 37.0022 84.0379 36.4649 82.4642C35.9268 80.8906 34.9323 78.7849 34.2548 77.7857C33.5765 76.7864 32.9833 74.5368 32.9349 72.7855C32.8874 71.0351 32.6538 69.6526 32.4168 69.715C32.1799 69.7766 30.1083 70.0534 27.8139 70.3294ZM101.476 77.0553L101.718 84.1091L98.9729 83.8555L96.228 83.6027L95.9861 76.5496L95.7441 69.4958L98.489 69.7494L101.234 70.0022L101.476 77.0553ZM225.252 70.8751C225.444 71.2751 226.127 72.6103 226.77 73.8416C227.707 75.6384 227.743 76.5992 226.952 78.6985C226.408 80.1386 225.965 82.6642 225.965 84.3123C225.965 87.5988 224.989 89.8541 222.378 92.603C220.379 94.7078 221.593 94.9574 225.179 93.179C226.993 92.2789 228.075 92.1733 229.254 92.779C231.575 93.9694 231.976 93.8038 231 92.0557C230.525 91.2045 230.159 89.134 230.187 87.4556L230.237 84.4027L232.272 88.4028C236.671 97.0487 241.163 99.996 249.951 100C253.429 100.002 256 99.6632 256 99.2032C256 98.7632 254.774 98.4031 253.276 98.4031C251.778 98.4031 249.151 97.6831 247.439 96.8031C243.819 94.9422 243.157 94.827 243.997 96.2031C244.332 96.7535 243.791 96.5175 242.794 95.6791C240.688 93.9078 240.404 90.1029 242.084 86.1772C242.69 84.7611 243.031 82.1242 242.842 80.3178C242.55 77.5265 242.823 76.7888 244.661 75.4024C245.85 74.5056 246.823 73.5536 246.823 73.2871C246.823 73.0207 244.524 72.8023 241.715 72.8023C237.613 72.8023 236.784 73.0079 237.508 73.844C238.529 75.0232 237.831 86.4028 236.738 86.4028C236.372 86.4028 235.22 83.8659 234.179 80.7658C232.686 76.3192 232.488 74.8184 233.242 73.6591C234.096 72.3495 233.851 72.1367 230.99 71.6983C229.223 71.4271 227.132 70.9679 226.341 70.6767C225.55 70.3854 225.059 70.4751 225.252 70.8751ZM215.949 73.9984C217.152 75.388 216.355 86.87 215 87.6724C214.554 87.9372 213.218 87.9196 212.031 87.634C209.874 87.1148 209.872 87.11 210.395 80.6146C210.893 74.4208 211.616 72.8455 213.974 72.8143C214.491 72.8079 215.38 73.3407 215.949 73.9984ZM30.2234 82.7466C28.9945 85.8179 27.0346 83.4059 27.8531 79.8297L28.4338 77.2953L29.5802 79.3929C30.2109 80.5474 30.5004 82.0562 30.2234 82.7466Z" fill="black"/>
</svg>
