<svg width="34" height="34" viewBox="0 0 34 34" fill="none" xmlns="http://www.w3.org/2000/svg">
<path d="M31.3158 28C32.0051 28.0004 32.6679 28.2972 33.1668 28.8288C33.6657 29.3605 33.9624 30.0863 33.9956 30.8558C34.0287 31.6254 33.7957 32.3797 33.3447 32.9624C32.8938 33.5451 32.2596 33.9117 31.5735 33.986L31.3158 34H2.68421C1.99488 33.9996 1.33209 33.7028 0.833203 33.1712C0.334312 32.6395 0.0375574 31.9137 0.00443027 31.1442C-0.0286969 30.3746 0.204343 29.6203 0.655261 29.0376C1.10618 28.4549 1.74041 28.0883 2.42653 28.014L2.68421 28H31.3158ZM31.3158 14C32.0277 14 32.7104 14.3161 33.2138 14.8787C33.7172 15.4413 34 16.2044 34 17C34 17.7957 33.7172 18.5587 33.2138 19.1213C32.7104 19.6839 32.0277 20 31.3158 20H2.68421C1.97231 20 1.28957 19.6839 0.786187 19.1213C0.2828 18.5587 0 17.7957 0 17C0 16.2044 0.2828 15.4413 0.786187 14.8787C1.28957 14.3161 1.97231 14 2.68421 14H31.3158ZM31.3158 0C32.0277 0 32.7104 0.316071 33.2138 0.87868C33.7172 1.44129 34 2.20435 34 3C34 3.79565 33.7172 4.55871 33.2138 5.12132C32.7104 5.68393 32.0277 6 31.3158 6H2.68421C1.97231 6 1.28957 5.68393 0.786187 5.12132C0.2828 4.55871 0 3.79565 0 3C0 2.20435 0.2828 1.44129 0.786187 0.87868C1.28957 0.316071 1.97231 0 2.68421 0H31.3158Z" fill="black"/>
</svg>
