<svg width="25" height="25" viewBox="0 0 25 25" fill="none" xmlns="http://www.w3.org/2000/svg">
<path d="M10.2097 20.2265C12.3391 20.2237 14.4143 19.5614 16.1447 18.3322L22.4378 24.5662C22.5791 24.7054 22.7469 24.8154 22.9315 24.8898C23.1161 24.9643 23.3137 25.0017 23.513 24.9999C24.3763 24.9999 25 24.3423 25 23.5006C25 23.1062 24.8674 22.7381 24.5751 22.4491L18.3217 16.2415C19.636 14.5318 20.4194 12.4147 20.4194 10.113C20.4194 4.55009 15.8258 0 10.2097 0C4.58058 0 0 4.55009 0 10.113C0 15.6759 4.58058 20.2265 10.2097 20.2265ZM10.2097 18.0432C5.81494 18.0432 2.20362 14.4532 2.20362 10.113C2.20362 5.77332 5.81494 2.18274 10.2097 2.18274C14.5909 2.18274 18.2158 5.77332 18.2158 10.113C18.2158 14.4532 14.5909 18.0432 10.2097 18.0432Z" fill="black"/>
</svg>
