<svg width="26" height="26" viewBox="0 0 26 26" fill="none" xmlns="http://www.w3.org/2000/svg">
<path d="M1.06055 23.7647L20.9852 12.9989L1.06055 2.23306C0.703809 2.04072 0.504089 1.7825 0.504089 1.51361C0.504089 1.24473 0.703809 0.98651 1.06055 0.794168C1.2338 0.701033 1.4406 0.627042 1.66882 0.57653C1.89705 0.526018 2.14212 0.5 2.38968 0.5C2.63724 0.5 2.8823 0.526018 3.11053 0.57653C3.33876 0.627042 3.54555 0.701033 3.71881 0.794168L24.9195 12.2471C25.2917 12.4483 25.5 12.718 25.5 12.9989C25.5 13.2798 25.2917 13.5495 24.9195 13.7507L3.7229 25.2036C3.54951 25.2974 3.34221 25.372 3.11323 25.4229C2.88424 25.4738 2.63822 25.5 2.38968 25.5C2.14113 25.5 1.89511 25.4738 1.66613 25.4229C1.43714 25.372 1.22984 25.2974 1.05645 25.2036C0.699717 25.0113 0.499999 24.7531 0.499999 24.4842C0.499999 24.2153 0.699717 23.9571 1.05646 23.7647L1.06055 23.7647Z" fill="black"/>
</svg>
