<svg width="31" height="23" viewBox="0 0 31 23" fill="none" xmlns="http://www.w3.org/2000/svg">
<path d="M27.5963 13.1051L28.3136 12.2776L27.2185 12.2776L1.10707 12.2776C0.971071 12.2776 0.823339 12.2158 0.702127 12.076C0.578962 11.9338 0.500003 11.7275 0.500003 11.5C0.500003 11.2725 0.578962 11.0662 0.702127 10.924C0.823341 10.7842 0.971075 10.7224 1.10707 10.7224L27.2185 10.7224L28.3136 10.7224L27.5963 9.89491L20.6284 1.85632C20.505 1.71388 20.4259 1.50717 20.4259 1.27921C20.4259 1.05126 20.505 0.844546 20.6284 0.702107C20.7499 0.561922 20.898 0.5 21.0344 0.5C21.1035 0.5 21.1741 0.515585 21.2429 0.548484C21.3121 0.581531 21.3799 0.632377 21.4403 0.702107L30.2969 10.9229L30.2973 10.9234C30.3578 10.9931 30.409 11.0796 30.445 11.1795L30.9131 11.0112L30.445 11.1795C30.4809 11.2794 30.5 11.3885 30.5 11.5C30.5 11.6115 30.4809 11.7206 30.445 11.8205L30.9131 11.9888L30.445 11.8205C30.409 11.9204 30.3578 12.0069 30.2973 12.0766L30.2969 12.0771L21.4403 22.2979C21.3188 22.4381 21.1707 22.5 21.0344 22.5C20.898 22.5 20.7499 22.4381 20.6284 22.2979C20.505 22.1555 20.4259 21.9487 20.4259 21.7208C20.4259 21.4928 20.505 21.2861 20.6284 21.1437L27.5963 13.1051Z" fill="black" stroke="black"/>
</svg>
